<svg xmlns="http://www.w3.org/2000/svg" version="1.1" xmlns:xlink="http://www.w3.org/1999/xlink" viewBox="0 0 200 200"><rect width="200" height="200" fill="url('#gradient')"></rect><defs><linearGradient id="gradient" gradientTransform="rotate(45 0.5 0.5)"><stop offset="0%" stop-color="#ffffff"></stop><stop offset="100%" stop-color="#ffffff"></stop></linearGradient></defs><g><g fill="#3278ab" transform="matrix(6.674846625766871,0,0,6.674846625766871,15.195992037745341,146.79239218951733)" stroke="#5ed03e" stroke-width="0"><path d="M3.77-14.22L6.59-3.87L9.42-14.22L13.25-14.22L8.47 0L4.72 0L-0.03-14.22L3.77-14.22ZM22.01-14.22L25.44-14.22L25.44-4.91Q25.44-3.33 24.77-2.17Q24.09-1.02 22.83-0.41Q21.57 0.20 19.85 0.20L19.85 0.20Q17.26 0.20 15.76-1.15Q14.27-2.50 14.24-4.84L14.24-4.84L14.24-14.22L17.69-14.22L17.69-4.78Q17.74-2.44 19.85-2.44L19.85-2.44Q20.92-2.44 21.46-3.03Q22.01-3.61 22.01-4.93L22.01-4.93L22.01-14.22Z"></path></g></g></svg>