<svg width="99" height="67" viewBox="0 0 99 67" fill="none" xmlns="http://www.w3.org/2000/svg">
<path d="M50.433 66.9994C34.7545 66.9994 27.1847 54.3549 4.71339 16.8157C0.87515 10.4058 3.1376 6.5889 4.28661 5.24723C6.58737 2.5639 10.6335 1.8739 14.5949 3.48938C22.7528 6.81616 37.0306 15.9231 46.4799 21.9496C47.9626 22.897 49.3004 23.7485 50.4275 24.4604C51.5519 23.7513 52.8815 22.9052 54.356 21.9633C63.8162 15.934 78.1077 6.8189 86.2711 3.48938C90.2325 1.8739 94.2786 2.5639 96.5794 5.24723C97.7284 6.5889 99.9909 10.4058 96.1526 16.8157C73.6813 54.3549 66.1115 66.9994 50.433 66.9994ZM10.3873 7.0133C9.22462 7.0133 8.22334 7.38295 7.61053 8.09759C6.49982 9.3927 6.8199 11.8104 8.46682 14.5622C31.2692 52.6546 37.7583 62.6157 50.433 62.6157C63.1077 62.6157 69.5968 52.6518 92.3992 14.5622C94.0461 11.8104 94.3662 9.3927 93.2555 8.09759C92.2214 6.89009 90.0765 6.6683 87.9208 7.54723C80.1239 10.7262 65.4659 20.074 56.7088 25.6597C55.9099 26.169 55.1521 26.6509 54.4463 27.0999C58.301 29.9092 61.5729 33.4989 61.5729 38.6164C61.5729 44.1665 56.4708 48.8568 50.4303 48.8568C44.3898 48.8568 39.2876 44.1665 39.2876 38.6164C39.2876 33.4961 42.5568 29.9065 46.4087 27.0999C45.6974 26.6482 44.9342 26.1608 44.1271 25.646C35.3782 20.0658 20.7366 10.7234 12.9452 7.54723C12.067 7.18854 11.1889 7.0133 10.39 7.0133H10.3873ZM50.4303 29.6491C45.7056 32.7815 43.6675 35.5059 43.6675 38.6164C43.6675 41.7268 46.83 44.4759 50.433 44.4759C54.036 44.4759 57.1985 41.7378 57.1985 38.6164C57.1985 35.4949 55.1576 32.7842 50.4303 29.6491Z" fill="#E4002B"/>
</svg>
